<?xml version="1.0" encoding="utf-8"?>
<!-- Generator: Adobe Illustrator 20.1.0, SVG Export Plug-In . SVG Version: 6.00 Build 0)  -->
<svg version="1.1" id="Layer_1" xmlns="http://www.w3.org/2000/svg" xmlns:xlink="http://www.w3.org/1999/xlink" x="0px" y="0px"
	 viewBox="0 0 203.8 61" style="enable-background:new 0 0 203.8 61;" xml:space="preserve">
<style type="text/css">
	.st0{fill:#FFFFFF;}
	.st1{fill-rule:evenodd;clip-rule:evenodd;fill:#FFFFFF;}
</style>
<g>
	<g>
		<path class="st0" d="M43.3,15.4c0.2,0.2,0.2,0.5,0.1,0.8l-7.9,22.5c-0.2,0.5-0.4,0.8-0.8,1c-0.3,0.2-0.6,0.2-0.9,0.2h-4.9
			c-0.3,0-0.6-0.1-1-0.2c-0.4-0.2-0.6-0.5-0.8-1l-5.2-13.5l-4.9,13.5c-0.2,0.5-0.4,0.8-0.8,1c-0.3,0.2-0.6,0.2-0.9,0.2h-4.9
			c-0.3,0-0.6-0.1-1-0.2c-0.4-0.2-0.6-0.5-0.8-1L0.1,16.2h0l0-0.1C0,15.8,0,15.6,0.1,15.4C0.3,15.1,0.6,15,0.9,15H1h4.7H6
			c0.3,0,0.7,0.1,1,0.3c0.3,0.2,0.5,0.5,0.6,0.7l1.7,4.4c0,0,0,0.1,0,0.2L12.7,31L18,16.1c0.1-0.3,0.3-0.5,0.6-0.7
			c0.3-0.2,0.6-0.3,1-0.3h0.1h0.2h0.3h3.3h0.4H24h0.2c0.3,0,0.6,0.1,0.9,0.3c0.3,0.2,0.5,0.5,0.6,0.7l1.7,4.4c0,0,0,0.1,0,0.1
			c0,0,0,0,0,0.1L31.3,31l5-14.9c0.1-0.3,0.3-0.5,0.6-0.7c0.3-0.2,0.6-0.3,0.9-0.3h0.6h3.7h0.5C42.9,15,43.2,15.1,43.3,15.4z"/>
		<path class="st0" d="M53,11.3c0,0.3-0.1,0.6-0.4,0.8c-0.2,0.2-0.5,0.3-0.9,0.3h-5c-0.3,0-0.6-0.1-0.9-0.3
			c-0.2-0.2-0.4-0.5-0.4-0.8V6.7c0-0.3,0.1-0.5,0.4-0.7c0.2-0.2,0.5-0.3,0.9-0.3h5c0.3,0,0.6,0.1,0.9,0.3C52.9,6.2,53,6.4,53,6.7
			V11.3z M53,38.9c0,0.3-0.1,0.5-0.3,0.7c-0.2,0.2-0.5,0.3-0.8,0.3h-5c-0.3,0-0.6-0.1-0.9-0.3c-0.2-0.2-0.4-0.5-0.4-0.7V16.2
			c0-0.3,0.1-0.5,0.4-0.7c0.2-0.2,0.5-0.3,0.9-0.3h5c0.3,0,0.6,0.1,0.8,0.3c0.2,0.2,0.3,0.5,0.3,0.7V38.9z"/>
		<path class="st0" d="M64,33.7c0.2,0.2,0.3,0.4,0.3,0.7v4.4c0,0.3-0.1,0.6-0.3,0.8c-0.2,0.2-0.5,0.3-0.8,0.3h-2.8h0h-4.6
			c-0.4,0-0.7-0.1-1-0.4c-0.3-0.2-0.4-0.5-0.4-0.9v-2.5v0V9.6V6.7c0-0.3,0.1-0.5,0.3-0.7c0.2-0.2,0.5-0.3,0.8-0.3h5
			c0.3,0,0.6,0.1,0.8,0.3c0.2,0.2,0.3,0.5,0.3,0.7v5.1v19.4c0,0.8,0,1.4,0.1,1.7c0,0.3,0.4,0.5,0.9,0.5h0.4h0.1
			C63.5,33.4,63.8,33.5,64,33.7z"/>
		<path class="st0" d="M75.4,33.7c0.2,0.2,0.3,0.4,0.3,0.7v4.4c0,0.3-0.1,0.6-0.3,0.8c-0.2,0.2-0.5,0.3-0.8,0.3h-2.8h0h-4.6
			c-0.4,0-0.7-0.1-1-0.4c-0.3-0.2-0.4-0.5-0.4-0.9v-2.5v0V9.6V6.7c0-0.3,0.1-0.5,0.3-0.7c0.2-0.2,0.5-0.3,0.8-0.3h5
			c0.3,0,0.6,0.1,0.8,0.3c0.2,0.2,0.3,0.5,0.3,0.7v5.1v19.4c0,0.8,0,1.4,0.1,1.7s0.4,0.5,0.9,0.5h0.4h0.1
			C74.9,33.4,75.1,33.5,75.4,33.7z"/>
		<path class="st0" d="M85.2,11.3c0,0.3-0.1,0.6-0.4,0.8c-0.2,0.2-0.5,0.3-0.9,0.3h-5c-0.3,0-0.6-0.1-0.9-0.3
			c-0.2-0.2-0.4-0.5-0.4-0.8V6.7c0-0.3,0.1-0.5,0.4-0.7c0.2-0.2,0.5-0.3,0.9-0.3h5c0.3,0,0.6,0.1,0.9,0.3c0.2,0.2,0.4,0.5,0.4,0.7
			V11.3z M85.2,38.9c0,0.3-0.1,0.5-0.3,0.7C84.6,39.8,84.4,40,84,40h-5c-0.3,0-0.6-0.1-0.9-0.3c-0.2-0.2-0.4-0.5-0.4-0.7V16.2
			c0-0.3,0.1-0.5,0.4-0.7c0.2-0.2,0.5-0.3,0.9-0.3h5c0.3,0,0.6,0.1,0.8,0.3c0.2,0.2,0.3,0.5,0.3,0.7V38.9z"/>
		<g>
			<path class="st0" d="M98.6,39.9c0.6-0.4,1.3-0.8,1.9-1.2c1.4-1,2.5-2.1,3.3-3.1c0.7-1,1.2-1.9,1.4-2.7c0.1-0.7,0.1-1.3-0.2-1.8
				c-0.2-0.5-0.6-0.9-1.2-1.3c-0.3-0.1-0.6-0.3-0.9-0.4l0,0.3c0,1.8-0.5,3.1-1.4,4c-0.9,0.9-2.5,1.4-4.5,1.4c0,0,0,0,0,0
				c-0.1,0.2-0.2,0.4-0.3,0.8c-0.3,0.8-0.6,1.9-1,3.2c-0.1,0.3-0.2,0.6-0.3,0.9c0.1,0,0.2,0,0.3,0C96.7,39.9,97.7,39.9,98.6,39.9z"
				/>
			<path class="st0" d="M88.4,37.8c0.5,0.5,1.2,1,2,1.3c0.3-1.2,0.6-2.5,1-3.8c0.7-2.5,1.3-4.2,1.8-5.5c-0.6,0.2-1.2,0.4-1.8,0.6
				l-0.1,0c0,0-0.2,0-0.2,0c0,0.2,0,0.4,0,0.7c-0.1,0.6-0.6,1.6-2.3,2c-0.3,0.1-0.6,0.1-0.8,0.2c-0.3,0.1-0.6,0.1-0.9,0.1
				c-0.1,0-0.2,0-0.4,0c0,0.7,0.1,1.4,0.3,2.1C87.2,36.3,87.7,37.1,88.4,37.8z"/>
			<path class="st0" d="M110.2,34c0,0,0,0.1,0,0.1c-0.3,1.9-1.4,3.8-3.1,5.7c0.3,0.1,0.7,0.1,1.1,0.1c0.9-1.6,1.8-2.6,2.9-3.1v-2
				c0-0.3-0.1-0.5-0.2-0.6c-0.1-0.1-0.3-0.2-0.4-0.2v0C110.3,34.1,110.2,34,110.2,34z"/>
			<path class="st0" d="M88.9,23.4c0.2,0.3,0.3,0.4,0.5,0.5s0.3,0,0.5-0.1l0,0c0,0,0,0,0.1,0c0,0,0,0,0.1,0c0.1,0,0.2-0.1,0.2-0.1
				l0.7-0.4c0.3-0.2,0.7-0.4,1-0.6c0.4-0.2,0.7-0.4,1.1-0.5c0.7-0.3,1.5-0.5,2.4-0.7c0.9-0.2,1.8-0.3,2.8-0.3c1,0,1.8,0.1,2.5,0.2
				c0.6,0.1,1.1,0.3,1.4,0.6c0.3,0.3,0.6,0.6,0.7,1c0.1,0.3,0.1,0.7,0.1,1.1c3.4,0.8,5.3,2.6,6.3,4.6v-3.9c0-1.7-0.1-3.1-0.4-4.3
				c-0.3-1.2-0.8-2.2-1.5-2.9s-1.8-1.3-3.1-1.7c-1.3-0.4-3.1-0.5-5.2-0.5c-1.4,0-2.7,0.1-3.9,0.3c-1.4,0.2-2.7,0.5-3.9,1
				c-1.2,0.4-2.4,1.1-3.6,1.9l-0.3,0.2c-0.3,0.2-0.4,0.4-0.4,0.6c0,0.2,0.1,0.4,0.3,0.7L88.9,23.4z"/>
		</g>
		<path class="st0" d="M147.4,27.4c0-3.8,0.8-7.5,2.1-10.9c-0.4-0.3-0.8-0.6-1.3-0.8c-1.2-0.5-3-0.8-5.3-0.8c-1.7,0-3,0.1-4.1,0.2
			c-1.1,0.1-1.9,0.3-2.6,0.6c-0.7,0.2-1.1,0.5-1.5,0.9c-0.3,0.3-0.6,0.7-0.8,1.2c-0.2-0.4-0.4-0.7-0.8-1.1c-0.3-0.3-0.8-0.6-1.3-0.9
			c-0.6-0.3-1.2-0.5-2.1-0.6c-0.8-0.1-1.8-0.2-3-0.2c-1.6,0-2.8,0.1-3.7,0.2c-0.9,0.1-1.6,0.3-2.1,0.5c-0.5,0.2-0.8,0.4-1.1,0.7
			c-0.2,0.3-0.5,0.6-0.7,1v-1.2c0-0.3-0.1-0.6-0.3-0.8c-0.2-0.2-0.4-0.4-0.8-0.4h-4.5c-0.3,0-0.6,0.1-0.8,0.3
			c-0.2,0.2-0.3,0.5-0.3,0.8v0.5v20.1c0.1,0,0.2,0,0.2,0c0.9,0,1.6,0.3,2.1,0.8c0.1,0.1,0.1,0.2,0.2,0.3c0.3,0.1,0.6,0.2,1,0.3
			c0.1-0.1,0.2-0.1,0.3-0.2c1-1,1.5-1.2,2-1.2c0.4,0,0.7,0.1,1,0.2v-10c0-0.8,0.1-1.5,0.2-2.2c0.1-0.7,0.3-1.2,0.7-1.7
			c0.4-0.5,0.9-0.8,1.6-1.1c0.7-0.3,1.6-0.4,2.8-0.4c1,0,1.8,0.1,2.5,0.4c0.6,0.2,1.1,0.6,1.4,1.1c0.3,0.5,0.5,1,0.6,1.6
			c0.1,0.6,0.2,1.3,0.2,2v9.8v0.4c0.2,0.4,0.3,0.8,0.4,1.1c0.5,0.4,0.8,1.1,0.9,2.2h0.4c0.2-0.3,0.4-0.7,0.6-1c0.7-0.9,1.3-1.6,2-2
			c0.8-0.5,1.6-0.8,2.5-0.8v-9.3c0-0.8,0-1.5,0.1-2.2c0-0.7,0.2-1.2,0.5-1.7c0.3-0.5,0.8-0.8,1.4-1.1c0.6-0.3,1.5-0.4,2.7-0.4
			c1,0,1.8,0.1,2.4,0.4c0.6,0.2,1,0.6,1.2,1.1c0.3,0.5,0.4,1,0.5,1.6c0,0.6,0.1,1.3,0.1,2V35v0.5c0.9,0,1.4,0.4,1.7,0.8
			c0.5,0.6,0.7,1.4,0.5,2.4c0,0,0.1,0.1,0.2,0.2c0.5,0.4,0.9,0.7,1.2,1.1h2C148.4,36.1,147.4,31.8,147.4,27.4z"/>
	</g>
	<g>
		<path class="st0" d="M110.8,54.2c-0.1,0.3-0.2,0.6-0.4,0.8c-0.2,0.2-0.5,0.3-1,0.3c-0.3,0-0.9-0.1-1.6-0.3
			c-2.2-0.6-4.2-1.3-6.2-2.1c-1.9-0.8-3.7-1.6-5.4-2.5c-0.5-0.3-1.1-0.6-1.8-1c-0.7-0.4-1.6-0.8-2.7-1.4c-0.3,0.9-0.6,1.7-0.7,2.4
			c0,0.1-0.1,0.2-0.2,0.2c0.1,0,0.3,0,0.4,0c0.1,0,0.1,0,0.2,0c0,0,0.1,0,0.1,0c0.7,0,1,0.3,0.9,0.9c-0.1,0.4-0.4,1-1.1,1.8h0
			c-0.7,0.9-1.3,1.3-1.8,1.3c-0.3,0-0.5-0.1-0.7-0.4c-0.2-0.3-0.3-0.6-0.4-1c0-0.3,0-0.5,0-0.8c0-0.3,0-0.5,0.1-0.8
			c0-0.3,0.1-0.7,0.3-1.1c0.1-0.4,0.3-0.9,0.4-1.3c0.2-0.6,0.4-1,0.5-1.3c0.1-0.3,0.2-0.6,0.3-0.8c-0.4-0.4-0.8-0.7-1-1.1
			c-0.3-0.3-0.4-0.6-0.3-0.9c0-0.2,0.2-0.4,0.6-0.5c0.4-0.1,0.8-0.2,1.5-0.2c0.4-1.4,0.7-2.8,1.1-4.2c0.3-1.4,0.7-2.8,1.1-4.2
			c1.3-4.8,2.5-7.2,3.4-7.2c0.2,0,0.4,0.1,0.6,0.3c0.2,0.2,0.4,0.4,0.5,0.7c0.1,0.3,0.2,0.6,0.3,0.9c0,0.3,0,0.6,0,0.8
			c0,0.3-0.2,0.7-0.6,1.3l-0.6,0.9v0c0,0.1-0.1,0.1-0.1,0.2c0,0-0.1,0.1-0.1,0.2h0c-0.2,0.4-0.4,1-0.7,1.8c-0.3,0.8-0.6,1.9-1.1,3.2
			c-0.4,1.4-0.8,2.5-1.1,3.4c-0.3,0.9-0.4,1.5-0.5,1.9c0.1,0,0.2,0,0.4-0.1h0c1.3-0.4,2.7-0.9,4.1-1.6c1.4-0.7,2.7-1.5,4-2.4
			c1.5-1.1,2.7-2.2,3.6-3.4c0.9-1.1,1.4-2.2,1.6-3.3c0.2-1,0.1-1.9-0.3-2.6c-0.4-0.8-0.9-1.4-1.7-1.9c-0.7-0.4-1.5-0.7-2.4-0.9
			c-0.9-0.2-1.9-0.3-3.1-0.3c-0.9,0-1.9,0.1-3.3,0.4c-1.3,0.3-2.9,0.7-4.8,1.3c-0.3,0-0.5,0.1-0.6,0.1c-0.1,0-0.3,0.1-0.4,0.1
			c-0.2,0.1-0.4,0.1-0.5,0.1c-0.1,0-0.2,0.1-0.4,0.1c-0.1,0-0.2,0.1-0.3,0.1c0,0.1,0.1,0.1,0.2,0.1c0.3,0.1,0.5,0.2,0.6,0.4
			c0.1,0.1,0.2,0.3,0.1,0.5c-0.1,0.5-0.5,0.8-1.3,1.1c-0.3,0-0.5,0.1-0.7,0.1c-0.2,0-0.4,0.1-0.6,0.1c-0.5,0-0.9-0.2-1.2-0.6
			c-0.3-0.4-0.4-0.8-0.3-1.3c0.1-0.8,0.7-1.5,1.8-2.1c1.1-0.6,2.6-1.2,4.5-1.8c1.5-0.4,2.9-0.7,4.1-0.9c1.3-0.2,2.4-0.3,3.4-0.3
			c5.2,0,8.3,2,9.4,6.1c0.2,1,0.3,2,0.1,3c-0.4,2.5-2.3,5-5.6,7.5c-1.4,1.1-2.9,2-4.3,2.7c-1.4,0.7-2.8,1.3-4.2,1.7c0,0-0.1,0-0.1,0
			c0,0-0.1,0-0.1,0h0.1c-0.1,0-0.3,0.1-0.5,0.1c-0.2,0-0.4,0-0.6,0.1c0,0-0.2,0.1-0.3,0.1c0.4,0.4,1.1,0.8,2.2,1.3
			c1,0.5,2.3,1.1,4,1.7c3,1.3,5.1,2.1,6.5,2.4c0,0-0.1-0.1-0.1-0.2c0-0.1-0.1-0.1-0.1-0.2c-0.1-0.2,0-0.4,0.1-0.6l0.2-0.1
			c0.1-0.1,0.3-0.1,0.4-0.1c0.8,0,1.7,0.4,2.9,1.1v0C110.4,52.3,110.9,53.2,110.8,54.2z"/>
		<path class="st0" d="M118.8,39.1c-0.1,0.4-0.3,0.8-0.6,1.1c-0.3,0.3-0.7,0.6-1.3,0.9c0.3,0.6,0.3,1.5,0.1,2.6
			c-0.2,1.2-0.8,2.4-1.7,3.5c-1.1,1.2-2.2,1.9-3.4,1.9c-0.6,0-1.1-0.1-1.6-0.4c-0.5-0.2-0.9-0.6-1.3-1c-0.3-0.3-0.5-0.6-0.7-0.9
			c-0.2-0.4-0.3-0.7-0.3-1.1c-0.5,0.3-0.8,0.5-1,0.5c-0.3,0-0.5-0.1-0.7-0.2c-0.2-0.1-0.2-0.4-0.2-0.7c0-0.1,0.1-0.3,0.3-0.5
			c0.2-0.2,0.4-0.5,0.7-0.8c0.3-0.2,0.5-0.4,0.6-0.7c0.1-0.2,0.2-0.4,0.3-0.6c1.2-3.2,2.7-4.8,4.3-4.8c0.9,0,1.3,0.4,1.2,1.1
			c0.1,0,0.1,0,0.2-0.1c0,0,0.1,0,0.3,0c0.5,0,1,0.2,1.6,0.6c0.1,0,0.3-0.1,0.5-0.3c0.2-0.1,0.4-0.3,0.7-0.5c0,0,0.9-0.9,1.2-0.9
			C118.7,37.9,119,38.3,118.8,39.1z M112.8,40.3c0-0.1,0-0.2,0-0.3c0-0.1,0-0.1,0.1-0.2c-0.1,0-0.2,0.1-0.3,0.1
			c-0.3,0.1-0.5,0.3-0.7,0.4c-0.2,0.2-0.4,0.3-0.6,0.5c-0.2,0.3-0.4,0.6-0.6,0.9c-0.2,0.3-0.3,0.7-0.3,1.1c-0.1,0.4-0.1,0.8-0.1,1.3
			c0,0.5,0.1,0.9,0.2,1.3c0.2,0.4,0.4,0.7,0.6,1c0.2,0.3,0.5,0.4,0.8,0.4c0.3,0,0.6-0.1,0.9-0.3c0.3-0.2,0.6-0.4,0.8-0.6
			c0.2-0.3,0.4-0.6,0.6-0.9c0.1-0.3,0.2-0.7,0.3-1c0.2-1,0.2-1.7,0-1.9c-0.1,0.1-0.2,0.1-0.4,0.1c-0.5,0-0.9-0.2-1.2-0.5
			C112.8,41.3,112.7,40.8,112.8,40.3z"/>
		<path class="st0" d="M131.1,49c-0.1,0.5-0.3,0.7-0.8,0.7c-0.5,0-1-0.2-1.6-0.6h0c-0.3-0.1-0.5-0.2-0.7-0.3
			c-0.2-0.1-0.4-0.1-0.6-0.1c-0.2,0.6-0.2,1.5-0.2,1.7c-1.2,7-3.6,10.5-7.1,10.5c-0.9,0-1.6-0.2-2.3-0.5c-0.7-0.3-1.2-0.8-1.6-1.3
			c-0.4-0.6-0.7-1.2-0.9-2c-0.1-0.8-0.1-1.6,0-2.5c0.3-1.9,1.7-3.8,4.3-5.5c1-0.7,2-1.3,3.1-1.8c1-0.5,2-0.8,3-1
			c0.2-1.1,0.4-2.4,0.6-3.7c-0.1,0.1-0.2,0.3-0.3,0.3c-0.1,0.1-0.2,0.2-0.3,0.3l-0.7,0.9c-1.5,1.6-2.8,2.3-3.9,2.3
			c-1.2,0-2-0.3-2.6-1c-0.6-0.7-0.8-1.6-0.6-2.7c0.2-1.3,1.2-2.8,3-4.5c1.8-1.7,3.3-2.6,4.6-2.6c0.6,0,1.1,0.3,1.6,0.8
			c0.6,0.6,0.8,1.1,0.8,1.6c0,0,0,0.1,0,0.1c0,0.1,0,0.1,0,0.1c0.9,0.2,1.2,1.3,0.9,3.3c0,0.1-0.1,0.4-0.1,0.7
			c-0.1,0.3-0.1,0.5-0.2,0.7c0,0.1,0,0.2-0.1,0.3c0,0.1,0,0.2,0,0.2c0,0.3-0.1,0.6-0.2,1c-0.1,0.4-0.1,0.8-0.2,1.3
			c0,0.1,0,0.2,0,0.2c0,0,0,0.1,0,0.2c0.4,0.1,0.7,0.1,1,0.2c0.3,0.1,0.6,0.2,0.9,0.4C130.8,47.5,131.3,48.2,131.1,49z M125.2,50.5
			c0-0.1,0.1-0.3,0.1-0.5c0-0.2,0.1-0.6,0.2-1.2c-0.7,0.2-1.4,0.4-2.2,0.8c-0.8,0.4-1.6,0.9-2.4,1.5h0c-1.9,1.4-3,2.8-3.3,4.2
			c-0.1,0.8,0.1,1.6,0.7,2.2s1.3,0.9,2.1,0.9C122.6,58.4,124.2,55.8,125.2,50.5z M125.4,40.1c0.2-0.2,0.4-0.5,0.5-0.7
			c0.2-0.2,0.3-0.4,0.4-0.5c-0.1,0-0.2-0.1-0.3-0.1c-0.1-0.1-0.2-0.1-0.4-0.2c-0.2,0-0.3-0.1-0.5-0.1c-0.1,0-0.3-0.1-0.4-0.1
			c-0.7,0-1.5,0.5-2.5,1.5c-0.5,0.6-0.9,1.1-1.2,1.5c-0.3,0.4-0.4,0.9-0.5,1.3c-0.1,0.9,0.1,1.3,0.7,1.3c0.6,0,1.3-0.4,2.1-1.2v0
			c0.1-0.2,0.3-0.5,0.6-0.9c0.3-0.4,0.6-0.9,1.1-1.5c0,0,0.1-0.1,0.2-0.2C125.4,40.2,125.4,40.1,125.4,40.1L125.4,40.1z"/>
		<g>
			<path class="st0" d="M128.9,45C128.9,45,128.9,45.1,128.9,45C128.8,45,128.8,45,128.9,45C128.9,45,128.9,45,128.9,45z"/>
			<path class="st0" d="M151.8,43c-0.1-0.2-0.4-0.3-0.7-0.3c-0.1,0-0.3,0.1-0.7,0.4c-0.4,0.3-1,0.8-1.6,1.4c-1.1,1-2,1.5-2.6,1.5
				c-0.2,0-0.3-0.2-0.2-0.7c0-0.2,0.1-0.4,0.2-0.7c0.1-0.2,0.3-0.5,0.5-0.9c0.4-0.8,0.7-1.3,0.8-1.6c0.1-0.8-0.3-1.5-1.2-2.1
				c-0.7-0.4-1-0.9-0.8-1.4c0.2-1.2-0.2-1.7-1.1-1.7c-1,0-1.7,0.5-1.8,1.4c0,0.1,0,0.3,0,0.4c0,0.2,0,0.4,0.1,0.5
				c0,0.1,0,0.2,0.1,0.4c0,0.1,0,0.2,0,0.3c0,0.3-0.3,0.7-0.8,1.2c-0.3,0.3-1.9,2.4-3.4,3.4c-0.3,0.2-0.6,0.4-0.9,0.6
				c-0.3,0.2-0.6,0.3-0.9,0.5c-0.4,0.2-0.9,0.4-1.2,0.5c-0.4,0.1-0.8,0.1-1.2,0.1c-0.4,0-0.8-0.1-1.1-0.4c-0.4-0.2-0.5-0.6-0.4-0.9
				c0,0,0.2,0,0.6-0.2s0.9-0.4,1.3-0.8c0.5-0.3,0.9-0.7,1.4-1.1v0c0.6-0.6,1-1.1,1.3-1.5s0.5-0.9,0.5-1.3c0.3-1.7-0.4-2.5-2.2-2.5
				c-0.6,0-1.2,0.2-1.8,0.6c-0.6,0.4-1.1,1-1.7,1.7c-0.4,0.6-0.8,1.2-1.1,1.8c-0.3,0.6-0.5,1.2-0.6,1.8c0,0.3-0.2,0.5-0.4,0.8
				c-0.2,0.2-0.5,0.4-0.9,0.5c-0.2,0.1-0.3,0.2-0.3,0.4c0,0,0,0,0,0.1c0,0,0,0,0,0.1v0c0,0.1-0.1,0.2-0.1,0.2
				c-0.1,0.9,0.1,1.3,0.8,1.3c0.2,0,0.4,0,0.5-0.1c0.1,0,0.4-0.2,0.7-0.5c0.1,0.4,0.3,0.7,0.3,0.9c0.1,0.2,0.2,0.3,0.2,0.3
				c0.7,0.8,1.4,1.2,2.3,1.2c1.1,0,2.3-0.3,3.5-0.9c1.1-0.5,3.1-1.6,5.4-4.1c0.7-0.9,1.2-1.7,1.5-2.3c0,0.1,0.1,0.1,0.1,0.2
				c0,0.1,0.1,0.1,0.1,0.2c0.4,0.3,0.6,0.6,0.5,0.9c0,0.1-0.1,0.3-0.2,0.6c-0.1,0.3-0.2,0.6-0.4,1c-0.3,0.8-0.5,1.4-0.6,1.8
				c-0.3,1.8,0.4,2.8,2,2.8c0.4,0,1-0.2,1.6-0.5c0.6-0.3,1.3-0.7,2.1-1.3c1.7-1.2,2.6-2.2,2.7-3.1C151.9,43.4,151.9,43.2,151.8,43z
				 M133.1,42c0.2-0.3,0.4-0.7,0.7-1.1v0c0.6-0.9,1.1-1.3,1.4-1.3c0.4,0,0.5,0.1,0.5,0.4c0,0.2-0.2,0.4-0.4,0.7
				c-0.2,0.3-0.5,0.6-0.9,1c-0.3,0.3-0.6,0.5-0.9,0.7c-0.3,0.2-0.5,0.3-0.8,0.5C132.8,42.6,132.9,42.3,133.1,42z"/>
		</g>
	</g>
	<g>
		<path class="st0" d="M7.5,45.4c0.2,0,0.3,0.1,0.4,0.3c0.6,1.7,0.9,2.6,0.9,2.6c0,0.1,0.1,0.1,0.1,0.1h0c0.1,0,0.1-0.1,0.2-0.3
			l0.9-2.6c0.1-0.1,0.2-0.2,0.3-0.2h0c0.1,0,0.2,0.1,0.3,0.2c0,0,0.3,0.9,0.9,2.6c0.1,0.2,0.1,0.3,0.2,0.3c0,0,0,0,0,0h0
			c0.1,0,0.1-0.1,0.2-0.3l0.9-2.6c0.1-0.1,0.2-0.2,0.3-0.2c0.1,0,0.3,0.1,0.3,0.2c0,0,0,0.1,0,0.1c0,0.1-0.1,0.2-0.2,0.6L12.2,50
			c0,0.1-0.1,0.2-0.2,0.2l-0.1,0h-0.1c-0.1,0-0.2-0.1-0.2-0.1c-0.1-0.1-0.1-0.2-0.2-0.4l-0.9-2.4c0-0.1-0.1-0.1-0.1-0.1h0
			c-0.1,0-0.2,0.1-0.2,0.3c0,0-0.3,0.9-0.9,2.5c0,0.1-0.1,0.2-0.2,0.2c0,0,0,0-0.1,0H8.9c-0.1,0-0.2,0-0.3-0.1
			c0-0.1-0.1-0.2-0.2-0.4c-0.9-2.5-1.3-3.8-1.3-3.8c0,0,0-0.1,0-0.1c0-0.1,0.1-0.3,0.2-0.3C7.4,45.4,7.5,45.4,7.5,45.4z"/>
		<path class="st0" d="M16.6,45.4c0.7,0,1.3,0.3,1.8,0.8c0.2,0.2,0.3,0.4,0.3,0.5c0,0,0,0,0,0.1c0,0.1,0,0.2-0.1,0.3
			c-0.1,0-0.8,0.6-2.3,1.7c0,0-0.1,0.1-0.4,0.3c0,0-0.1,0.1-0.1,0.1v0c0,0.1,0,0.1,0.1,0.2c0.3,0.1,0.5,0.2,0.7,0.2h0.1
			c0.4,0,0.7-0.1,1-0.4c0.2-0.2,0.3-0.3,0.3-0.4c0.1-0.1,0.1-0.2,0.2-0.4c0-0.2,0.1-0.3,0.1-0.3c0.1-0.1,0.2-0.1,0.3-0.1
			c0.2,0,0.3,0.1,0.4,0.3c0,0,0,0.1,0,0.1v0c0,0.1-0.1,0.3-0.2,0.6c-0.1,0.1-0.2,0.3-0.3,0.5c-0.2,0.2-0.3,0.3-0.4,0.4
			c-0.2,0.1-0.4,0.2-0.5,0.3c-0.3,0.1-0.6,0.2-0.9,0.2h-0.1c-0.5,0-1-0.2-1.4-0.5c-0.2-0.2-0.4-0.3-0.5-0.5
			c-0.1-0.2-0.2-0.3-0.2-0.4c-0.1-0.3-0.2-0.7-0.2-1c0-0.6,0.2-1.1,0.6-1.6c0.2-0.2,0.3-0.3,0.4-0.4C15.6,45.5,16,45.4,16.6,45.4z
			 M15,47.8c0,0.2,0,0.3,0.1,0.4c0,0,0.1,0.1,0.2,0.1c0,0,0.1-0.1,0.3-0.2c0,0,0.6-0.5,1.9-1.3c0,0,0.1-0.1,0.1-0.2v0
			c0-0.1,0-0.1-0.1-0.2c-0.3-0.1-0.5-0.2-0.7-0.2h-0.1c-0.4,0-0.7,0.1-1.1,0.4C15.1,47,15,47.3,15,47.8z"/>
		<path class="st0" d="M20,43.5L20,43.5c0.2,0,0.3,0.1,0.4,0.2c0,0.1,0.1,0.2,0.1,0.3v1.7c0,0.1,0.1,0.1,0.2,0.2c0,0,0,0,0.1,0
			c0,0,0.2-0.1,0.3-0.2c0.4-0.2,0.7-0.2,1-0.2h0.1c0.4,0,0.8,0.1,1.3,0.4c0.5,0.3,0.8,0.7,1,1.2c0.1,0.3,0.1,0.5,0.1,0.8v0
			c0,0.6-0.2,1.1-0.6,1.6c-0.2,0.2-0.4,0.4-0.4,0.4C23,50,22.5,50.2,22,50.2c-0.5,0-0.9-0.1-1.3-0.4c0,0-0.1,0-0.1,0h0
			c-0.1,0-0.2,0.1-0.2,0.2c-0.1,0.1-0.2,0.2-0.3,0.2c-0.1,0-0.3-0.1-0.4-0.2c0-0.1,0-0.1,0-0.2v-6c0-0.1,0.1-0.3,0.2-0.3
			C19.9,43.5,20,43.5,20,43.5z M20.4,47.8L20.4,47.8c0,0.5,0.2,0.9,0.5,1.2c0.3,0.3,0.7,0.4,1,0.4H22c0.4,0,0.7-0.1,1.1-0.4
			c0.3-0.3,0.5-0.7,0.5-1.1v0c0-0.4-0.2-0.8-0.5-1.1c-0.2-0.2-0.4-0.3-0.6-0.4c-0.2-0.1-0.3-0.1-0.5-0.1H22c-0.4,0-0.7,0.1-1,0.4
			C20.6,47,20.4,47.3,20.4,47.8z"/>
		<path class="st0" d="M32,43.4L32,43.4c0.2,0,0.3,0.1,0.4,0.2c0,0.1,0,0.1,0,0.1v6c0,0.2-0.1,0.3-0.3,0.4c-0.1,0-0.1,0-0.2,0
			c-0.2,0-0.3-0.1-0.4-0.3c0-0.1-0.1-0.2-0.2-0.2h0c0,0-0.1,0-0.2,0.1c-0.4,0.2-0.8,0.4-1.2,0.4H30c-0.5,0-0.9-0.2-1.4-0.5
			c-0.2-0.2-0.4-0.4-0.6-0.6c-0.3-0.4-0.4-0.9-0.4-1.4c0-0.5,0.1-0.9,0.4-1.4c0.2-0.3,0.4-0.5,0.6-0.6c0.2-0.1,0.4-0.2,0.7-0.3
			c0.2-0.1,0.4-0.1,0.7-0.1c0.4,0,0.9,0.1,1.3,0.4c0,0,0.1,0,0.1,0c0.1,0,0.2-0.1,0.2-0.2c0,0,0,0,0-0.1v-1.6c0-0.2,0.1-0.4,0.2-0.5
			C31.9,43.5,32,43.4,32,43.4z M28.4,47.8L28.4,47.8c0,0.5,0.2,0.9,0.5,1.2c0.3,0.3,0.7,0.4,1,0.4h0.1c0.4,0,0.7-0.1,1-0.4
			c0.1-0.1,0.2-0.2,0.3-0.3c0.2-0.3,0.3-0.6,0.3-0.8v-0.1c0-0.4-0.2-0.8-0.5-1.1c-0.3-0.3-0.7-0.4-1-0.4H30c-0.4,0-0.7,0.1-1,0.4
			c-0.1,0.1-0.2,0.2-0.3,0.3C28.5,47.2,28.4,47.5,28.4,47.8z"/>
		<path class="st0" d="M35.5,45.4c0.7,0,1.3,0.3,1.8,0.8c0.2,0.2,0.3,0.4,0.3,0.5c0,0,0,0,0,0.1c0,0.1,0,0.2-0.1,0.3
			c-0.1,0-0.8,0.6-2.3,1.7c0,0-0.1,0.1-0.4,0.3c0,0-0.1,0.1-0.1,0.1v0c0,0.1,0,0.1,0.1,0.2c0.3,0.1,0.5,0.2,0.7,0.2h0.1
			c0.4,0,0.7-0.1,1-0.4c0.2-0.2,0.3-0.3,0.3-0.4c0.1-0.1,0.1-0.2,0.2-0.4c0-0.2,0.1-0.3,0.1-0.3c0.1-0.1,0.2-0.1,0.3-0.1
			c0.2,0,0.3,0.1,0.4,0.3c0,0,0,0.1,0,0.1v0c0,0.1-0.1,0.3-0.2,0.6c-0.1,0.1-0.2,0.3-0.3,0.5c-0.2,0.2-0.3,0.3-0.4,0.4
			c-0.2,0.1-0.4,0.2-0.5,0.3c-0.3,0.1-0.6,0.2-0.9,0.2h-0.1c-0.5,0-1-0.2-1.4-0.5c-0.2-0.2-0.4-0.3-0.5-0.5
			c-0.1-0.2-0.2-0.3-0.2-0.4c-0.1-0.3-0.2-0.7-0.2-1c0-0.6,0.2-1.1,0.6-1.6c0.2-0.2,0.3-0.3,0.4-0.4C34.5,45.5,35,45.4,35.5,45.4z
			 M33.9,47.8c0,0.2,0,0.3,0.1,0.4c0,0,0.1,0.1,0.2,0.1c0,0,0.1-0.1,0.3-0.2c0,0,0.6-0.5,1.9-1.3c0,0,0.1-0.1,0.1-0.2v0
			c0-0.1,0-0.1-0.1-0.2c-0.3-0.1-0.5-0.2-0.7-0.2h-0.1c-0.4,0-0.7,0.1-1.1,0.4C34.1,47,33.9,47.3,33.9,47.8z"/>
		<path class="st0" d="M39.9,45.4c0.2,0,0.4,0.1,0.6,0.2c0.3,0.2,0.4,0.4,0.4,0.6c0,0.1-0.1,0.3-0.2,0.3c-0.1,0-0.1,0.1-0.2,0.1
			c-0.1,0-0.2-0.1-0.3-0.1c-0.1-0.1-0.2-0.2-0.3-0.2h0c-0.1,0-0.2,0.1-0.3,0.2c0,0.1,0,0.1,0,0.1c0,0.1,0.1,0.3,0.2,0.4
			c0.6,0.4,0.9,0.6,1,0.7c0.1,0.1,0.2,0.2,0.2,0.2c0.2,0.3,0.3,0.6,0.3,0.9c0,0.5-0.2,0.9-0.6,1.2c-0.3,0.2-0.6,0.3-0.9,0.3
			c-0.3,0-0.6-0.1-0.9-0.3c-0.2-0.1-0.3-0.3-0.4-0.4c-0.1-0.1-0.1-0.3-0.1-0.4v0c0-0.1,0.1-0.2,0.2-0.3c0.1,0,0.2-0.1,0.2-0.1
			c0.2,0,0.3,0.1,0.4,0.2c0,0.1,0.1,0.2,0.1,0.2c0.1,0.2,0.3,0.2,0.5,0.2c0.2,0,0.4-0.1,0.5-0.3c0.1-0.1,0.1-0.3,0.1-0.4
			c0-0.3-0.1-0.5-0.4-0.6c-0.6-0.4-0.9-0.6-1-0.6c-0.3-0.2-0.4-0.6-0.4-0.9c0-0.3,0.1-0.6,0.3-0.8C39.3,45.5,39.6,45.4,39.9,45.4z"
			/>
		<path class="st0" d="M42.7,43.8L42.7,43.8c0.2,0,0.4,0.1,0.5,0.3c0,0.1,0.1,0.1,0.1,0.2v0c0,0.2-0.1,0.3-0.3,0.4
			c-0.1,0-0.1,0-0.2,0c-0.2,0-0.4-0.1-0.5-0.3c0-0.1,0-0.1,0-0.2v0c0-0.2,0.1-0.4,0.3-0.5C42.6,43.8,42.7,43.8,42.7,43.8z
			 M42.7,45.4L42.7,45.4c0.2,0,0.3,0.1,0.4,0.2c0.1,0.1,0.1,0.2,0.1,0.2v4c0,0.1-0.1,0.3-0.2,0.4c-0.1,0-0.1,0-0.1,0h0
			c-0.1,0-0.2-0.1-0.3-0.2c0-0.1-0.1-0.2-0.1-0.3v-3.8c0-0.2,0.1-0.4,0.2-0.4C42.6,45.4,42.6,45.4,42.7,45.4z"/>
		<path class="st0" d="M48.4,45.4c0.1,0,0.2,0,0.3,0.1c0.1,0.1,0.1,0.2,0.1,0.3v3.9c0,0.4-0.1,0.8-0.4,1.3c-0.1,0.1-0.2,0.3-0.4,0.5
			c-0.2,0.2-0.4,0.3-0.6,0.4c-0.3,0.2-0.7,0.2-1,0.2h0c0,0,0,0,0,0c-0.1,0-0.2-0.1-0.3-0.2c0-0.1-0.1-0.2-0.1-0.2
			c0-0.1,0.1-0.3,0.2-0.4c0.1,0,0.2-0.1,0.4-0.1c0.1,0,0.3,0,0.4-0.1c0.4-0.2,0.7-0.4,0.9-0.8c0.1-0.2,0.2-0.5,0.2-0.7v-0.1
			c0,0,0,0,0,0c-0.3,0.3-0.6,0.4-1,0.5c-0.2,0-0.4,0.1-0.6,0.1c-0.7,0-1.3-0.3-1.9-0.8C44.2,49,44,48.6,44,48.2c0-0.2,0-0.3,0-0.4
			v-0.1c0-0.3,0.1-0.6,0.2-1c0.1-0.1,0.2-0.3,0.3-0.5c0.2-0.2,0.4-0.4,0.5-0.5c0.4-0.3,0.9-0.4,1.3-0.4h0.1c0.4,0,0.8,0.1,1.2,0.3
			c0.1,0.1,0.1,0.1,0.2,0.1c0.1,0,0.2-0.1,0.2-0.2C48.1,45.5,48.2,45.4,48.4,45.4z M44.7,47.8L44.7,47.8c0,0.5,0.2,0.9,0.5,1.2
			c0.2,0.2,0.3,0.3,0.5,0.3c0.2,0.1,0.4,0.1,0.6,0.1c0.5,0,0.9-0.2,1.2-0.6c0.3-0.3,0.4-0.7,0.4-1v-0.1c0-0.4-0.2-0.8-0.5-1.1
			c-0.2-0.2-0.3-0.3-0.5-0.3c-0.2-0.1-0.4-0.1-0.6-0.1c-0.5,0-0.9,0.2-1.2,0.6C44.9,47.1,44.7,47.4,44.7,47.8z"/>
		<path class="st0" d="M50.1,45.4c0.1,0,0.2,0.1,0.3,0.2c0.1,0.1,0.1,0.1,0.2,0.1c0,0,0.1,0,0.2-0.1c0.3-0.1,0.6-0.2,0.9-0.2
			c0.6,0,1.2,0.2,1.6,0.7c0.2,0.2,0.3,0.4,0.3,0.5c0.1,0.2,0.2,0.6,0.2,1v2.1c0,0.2-0.1,0.3-0.2,0.4c-0.1,0.1-0.2,0.1-0.3,0.1
			c-0.1,0-0.2,0-0.3-0.1C53.1,50,53,49.9,53,49.7v-2.1c0-0.3,0-0.5-0.1-0.7c-0.2-0.3-0.4-0.5-0.7-0.7c-0.2,0-0.3-0.1-0.4-0.1
			c-0.4,0-0.7,0.1-1,0.4c-0.1,0.2-0.2,0.4-0.3,0.6c0,0.1,0,0.2,0,0.4v2.1c0,0.2-0.1,0.3-0.2,0.4c-0.1,0.1-0.2,0.1-0.3,0.1
			c-0.1,0-0.2,0-0.3-0.1c-0.1-0.1-0.1-0.2-0.1-0.3v-3.9c0-0.2,0-0.3,0.1-0.3C49.9,45.4,50,45.4,50.1,45.4z"/>
		<path class="st0" d="M61,45.4c0.1,0,0.2,0,0.3,0.1c0.1,0.1,0.1,0.2,0.1,0.3v3.9c0,0.4-0.1,0.8-0.4,1.3c-0.1,0.1-0.2,0.3-0.4,0.5
			c-0.2,0.2-0.4,0.3-0.6,0.4c-0.3,0.2-0.7,0.2-1,0.2h0c0,0,0,0,0,0c-0.1,0-0.2-0.1-0.3-0.2c0-0.1-0.1-0.2-0.1-0.2
			c0-0.1,0.1-0.3,0.2-0.4c0.1,0,0.2-0.1,0.4-0.1c0.1,0,0.3,0,0.4-0.1c0.4-0.2,0.7-0.4,0.9-0.8c0.1-0.2,0.2-0.5,0.2-0.7v-0.1
			c0,0,0,0,0,0c-0.3,0.3-0.6,0.4-1,0.5c-0.2,0-0.4,0.1-0.6,0.1c-0.7,0-1.3-0.3-1.9-0.8c-0.3-0.3-0.5-0.7-0.5-1.2c0-0.2,0-0.3,0-0.4
			v-0.1c0-0.3,0.1-0.6,0.2-1c0.1-0.1,0.2-0.3,0.3-0.5c0.2-0.2,0.4-0.4,0.5-0.5c0.4-0.3,0.9-0.4,1.3-0.4h0.1c0.4,0,0.8,0.1,1.2,0.3
			c0.1,0.1,0.1,0.1,0.2,0.1c0.1,0,0.2-0.1,0.2-0.2C60.8,45.5,60.9,45.4,61,45.4z M57.4,47.8L57.4,47.8c0,0.5,0.2,0.9,0.5,1.2
			c0.2,0.2,0.3,0.3,0.5,0.3c0.2,0.1,0.4,0.1,0.6,0.1c0.5,0,0.9-0.2,1.2-0.6c0.3-0.3,0.4-0.7,0.4-1v-0.1c0-0.4-0.2-0.8-0.5-1.1
			c-0.2-0.2-0.3-0.3-0.5-0.3c-0.2-0.1-0.4-0.1-0.6-0.1c-0.5,0-0.9,0.2-1.2,0.6C57.5,47.1,57.4,47.4,57.4,47.8z"/>
		<path class="st0" d="M62.8,45.4c0.1,0,0.2,0.1,0.3,0.2c0,0,0.1,0,0.1,0h0c0,0,0.1,0,0.2-0.1c0.2-0.1,0.4-0.1,0.6-0.1
			c0.4,0,0.8,0.1,1.1,0.4c0.1,0.1,0.1,0.1,0.1,0.1c-0.3,0.3-0.5,0.5-0.5,0.5c0,0-0.1,0-0.1,0c-0.1,0-0.1,0-0.2-0.1
			c-0.1-0.1-0.3-0.1-0.4-0.1c-0.2,0-0.4,0.1-0.6,0.3c-0.2,0.2-0.2,0.4-0.2,0.6v2.6c0,0.2,0,0.3-0.1,0.4c-0.1,0.1-0.2,0.1-0.2,0.1h0
			c0,0-0.1,0-0.2,0c-0.1,0-0.2-0.1-0.2-0.2c0,0,0-0.1,0-0.2v-3.9c0-0.2,0-0.3,0.1-0.4C62.6,45.4,62.6,45.4,62.8,45.4z"/>
		<path class="st0" d="M67.1,45.4h1.3c0.4,0,0.8,0.2,1.1,0.5c0.3,0.3,0.4,0.7,0.4,1.1v2.9c0,0.1,0,0.2-0.1,0.3
			c-0.1,0.1-0.2,0.1-0.3,0.1h-0.1c-0.1,0-0.2-0.1-0.3-0.2c0,0-0.1-0.1-0.1-0.2c0-0.1-0.1-0.1-0.1-0.1h0c0,0-0.1,0-0.2,0.1
			c-0.4,0.2-0.7,0.3-1.1,0.3h-0.1c-0.4,0-0.7-0.2-1.1-0.5c-0.2-0.2-0.3-0.4-0.4-0.6c-0.1-0.2-0.1-0.4-0.1-0.6v-0.1
			c0-0.4,0.2-0.7,0.5-1.1c0.2-0.2,0.4-0.3,0.6-0.4c0.2-0.1,0.4-0.1,0.6-0.1h1.3c0.2,0,0.2,0,0.3-0.1c0,0,0,0,0,0v0
			c0-0.1-0.1-0.2-0.2-0.4c-0.2-0.1-0.3-0.2-0.5-0.2c-0.1,0-0.1,0-0.3,0h-1.1c-0.1,0-0.2-0.1-0.3-0.2c0-0.1,0-0.1,0-0.2
			c0-0.2,0.1-0.3,0.2-0.4C67,45.4,67,45.4,67.1,45.4z M66.7,48.6L66.7,48.6c0,0.2,0.1,0.4,0.2,0.6c0.2,0.2,0.3,0.2,0.6,0.2h0
			c0.4,0,0.7-0.1,1-0.4c0.2-0.2,0.3-0.3,0.3-0.4C69,48.3,69,48.1,69,48c0,0,0,0,0,0c0-0.1-0.1-0.2-0.2-0.2h-1.4
			c-0.2,0-0.4,0.1-0.5,0.2C66.8,48.2,66.7,48.4,66.7,48.6z M68.9,43.2c0.2,0,0.3,0.1,0.4,0.3c0,0,0,0.1,0,0.1c0,0.1-0.1,0.3-0.3,0.4
			c-0.7,0.6-1,0.9-1,0.9c0,0-0.1,0-0.1,0c-0.1,0-0.2-0.1-0.2-0.2v-0.1c0-0.1,0-0.1,0.1-0.3c0.5-0.7,0.7-1.1,0.8-1.2
			C68.7,43.2,68.8,43.2,68.9,43.2z"/>
		<path class="st0" d="M72.8,43.5c0.1,0,0.1,0,0.2,0.1c0.1,0.1,0.1,0.2,0.1,0.3c0,0.2-0.1,0.3-0.3,0.4c0,0-0.2,0-0.3,0
			c-0.1,0-0.2,0.1-0.3,0.1c-0.4,0.2-0.6,0.6-0.6,1v0.8c0,0.1,0,0.1,0.2,0.2h0.9c0.2,0,0.3,0.1,0.4,0.2c0.1,0.1,0.1,0.2,0.1,0.2
			c0,0.2-0.1,0.3-0.2,0.4c-0.1,0-0.1,0-0.2,0H72c-0.2,0-0.3,0.1-0.4,0.3c0,0,0,0,0,0.1v2.1c0,0.2-0.1,0.3-0.2,0.4
			c-0.1,0.1-0.2,0.1-0.2,0.1c-0.2,0-0.3-0.1-0.4-0.2c0-0.1,0-0.1,0-0.2v-4.2c0-0.4,0.1-0.7,0.2-0.9c0.2-0.4,0.5-0.8,0.9-1
			C72.2,43.5,72.5,43.5,72.8,43.5z"/>
		<path class="st0" d="M74.5,43.8L74.5,43.8c0.2,0,0.4,0.1,0.5,0.3c0,0.1,0.1,0.1,0.1,0.2v0c0,0.2-0.1,0.3-0.3,0.4
			c-0.1,0-0.1,0-0.2,0c-0.2,0-0.4-0.1-0.5-0.3c0-0.1,0-0.1,0-0.2v0c0-0.2,0.1-0.4,0.3-0.5C74.4,43.8,74.4,43.8,74.5,43.8z
			 M74.4,45.4L74.4,45.4c0.2,0,0.3,0.1,0.4,0.2c0.1,0.1,0.1,0.2,0.1,0.2v4c0,0.1-0.1,0.3-0.2,0.4c-0.1,0-0.1,0-0.1,0h0
			c-0.1,0-0.2-0.1-0.3-0.2c0-0.1-0.1-0.2-0.1-0.3v-3.8c0-0.2,0.1-0.4,0.2-0.4C74.3,45.4,74.4,45.4,74.4,45.4z"/>
		<path class="st0" d="M78,45.4c0.5,0,1,0.1,1.4,0.4c0.1,0.1,0.1,0.2,0.1,0.3c0,0.1-0.1,0.3-0.2,0.3c-0.1,0-0.1,0.1-0.2,0.1
			c-0.1,0-0.2,0-0.3-0.1c-0.2-0.1-0.5-0.2-0.8-0.2h0c-0.2,0-0.5,0.1-0.8,0.2c-0.3,0.2-0.6,0.5-0.7,0.9c-0.1,0.2-0.1,0.3-0.1,0.5
			c0,0.4,0.2,0.8,0.5,1.2c0.2,0.2,0.4,0.3,0.6,0.4c0.2,0,0.3,0.1,0.4,0.1h0c0.3,0,0.6-0.1,0.9-0.3c0.1,0,0.1-0.1,0.2-0.1
			c0.1,0,0.2,0.1,0.3,0.2c0,0.1,0.1,0.1,0.1,0.2c0,0.2-0.1,0.3-0.3,0.4c-0.4,0.2-0.8,0.3-1.3,0.3c-0.5,0-1-0.2-1.5-0.5
			c-0.1-0.1-0.2-0.2-0.3-0.3c-0.1-0.2-0.2-0.3-0.3-0.4c-0.2-0.4-0.3-0.8-0.3-1.2c0-0.5,0.2-1,0.5-1.5c0.1-0.1,0.2-0.2,0.3-0.3
			c0.2-0.1,0.3-0.3,0.5-0.3C77.3,45.5,77.7,45.4,78,45.4z"/>
		<path class="st0" d="M82.8,45.4L82.8,45.4c0.6,0,1.1,0.2,1.5,0.5c0.2,0.2,0.4,0.3,0.4,0.5c0.3,0.4,0.5,0.9,0.5,1.4
			c0,0.6-0.2,1.2-0.7,1.7c-0.2,0.2-0.5,0.4-0.7,0.5c-0.3,0.2-0.7,0.2-1,0.2h-0.1c-0.5,0-1-0.2-1.4-0.5c-0.2-0.1-0.3-0.3-0.4-0.4
			c-0.3-0.4-0.5-0.9-0.5-1.5c0-0.6,0.2-1.1,0.6-1.6c0.2-0.2,0.4-0.3,0.5-0.4C82,45.5,82.4,45.4,82.8,45.4z M81.3,47.8L81.3,47.8
			c0,0.4,0.2,0.8,0.5,1.1c0.3,0.3,0.7,0.4,1.1,0.4h0.1c0.4,0,0.8-0.2,1.2-0.5c0.3-0.3,0.4-0.7,0.4-1v0c0-0.4-0.2-0.8-0.5-1.2
			c-0.2-0.2-0.4-0.3-0.6-0.3c-0.2-0.1-0.3-0.1-0.5-0.1h-0.1c-0.3,0-0.5,0.1-0.8,0.2c-0.1,0.1-0.2,0.2-0.4,0.3
			c-0.2,0.2-0.3,0.4-0.3,0.6C81.3,47.4,81.3,47.6,81.3,47.8z"/>
		<circle class="st0" cx="26.1" cy="47.8" r="0.6"/>
		<circle class="st0" cx="55.3" cy="47.8" r="0.6"/>
	</g>
	<g>
		<path class="st1" d="M176.4,0C161.3,0,149,12.3,149,27.4c0,6.2,2.1,12.2,5.9,17c-0.2,2-0.6,4-1.3,5.9l-1.5,3.8l4.1,0.3
			c3,0.2,6-0.5,8.2-2.3c3.7,1.8,7.9,2.8,12.1,2.8c15.1,0,27.4-12.3,27.4-27.4S191.6,0,176.4,0z M176.4,50.5c-4.4,0-8.5-1.2-12-3.4
			c-1.4,2.4-4.2,3.1-6.9,2.9c0.9-2.2,1.4-4.9,1.5-7.5c-3.5-4-5.7-9.3-5.7-15.1c0-12.7,10.3-23.1,23.1-23.1
			c12.7,0,23.1,10.3,23.1,23.1C199.5,40.1,189.2,50.5,176.4,50.5z"/>
		<g>
			<path class="st0" d="M170.9,30.4l-7.2-2.8l7.4-3.2c0,0,0.1,0,0.1,0c0,0,0,0,0.1,0l3.2-1.2c0.2-0.1,0.4-0.2,0.5-0.4
				c0.1-0.2,0.2-0.4,0.2-0.7v-0.2v-3.3v-0.1c0-0.2-0.1-0.4-0.2-0.5c-0.2-0.1-0.3-0.1-0.5-0.1l-0.1,0l-16.1,6.7
				c-0.4,0.1-0.6,0.3-0.7,0.6c-0.1,0.3-0.2,0.5-0.2,0.7v3.5c0,0.2,0.1,0.4,0.2,0.6c0.1,0.2,0.3,0.4,0.7,0.6l10.3,4L170.9,30.4z"/>
			<path class="st0" d="M195.8,25.3c0-0.2,0-0.4-0.1-0.6c-0.1-0.2-0.3-0.4-0.7-0.6l-10.4-4.1l-2.3,4.2l7.3,2.9l-7.4,3.2
				c0,0,0,0-0.1,0c0,0,0,0-0.1,0l-3.2,1.2c-0.2,0.1-0.4,0.2-0.5,0.5c-0.1,0.2-0.2,0.4-0.2,0.7v0.2v3.3v0.1c0,0.2,0.1,0.4,0.2,0.5
				c0.2,0.1,0.3,0.1,0.6,0.1l0,0h0l16.1-6.7c0.4-0.1,0.6-0.3,0.7-0.6s0.2-0.5,0.2-0.7L195.8,25.3z"/>
			<path class="st0" d="M173.5,37.4c-0.1,0.2-0.3,0.4-0.5,0.5c-0.2,0.2-0.5,0.2-0.7,0.2h-3.3c-0.2,0-0.4-0.1-0.5-0.2
				c-0.1-0.2-0.1-0.3,0.1-0.5l12.8-23c0.1-0.2,0.3-0.4,0.6-0.5c0.2-0.2,0.5-0.2,0.7-0.2h3.3c0.2,0,0.4,0.1,0.5,0.2
				c0.1,0.2,0.1,0.3-0.1,0.5L173.5,37.4z"/>
		</g>
	</g>
</g>
</svg>
